<?xml version="1.0" encoding="utf-8"?>
<!-- Generator: Adobe Illustrator 25.1.0, SVG Export Plug-In . SVG Version: 6.00 Build 0)  -->
<svg version="1.1" id="Слой_1" xmlns="http://www.w3.org/2000/svg" xmlns:xlink="http://www.w3.org/1999/xlink" x="0px" y="0px"
	 viewBox="0 0 32 32" style="enable-background:new 0 0 32 32;" xml:space="preserve">
<style type="text/css">
	.st0{fill:none;stroke:#DAA520;}
</style>
<g>
	<path class="st0" d="M1.5,3.3h5.8c4.1,0,7.5,3.4,7.5,7.5v4H9c-4.1,0-7.5-3.4-7.5-7.5V3.3z"/>
	<path class="st0" d="M17.2,17.2H23c4.1,0,7.5,3.4,7.5,7.5v4h-5.8c-4.1,0-7.5-3.4-7.5-7.5V17.2z"/>
	<path class="st0" d="M24.7,1.5h4v5.8c0,4.1-3.4,7.5-7.5,7.5h-4V9C17.2,4.9,20.6,1.5,24.7,1.5z"/>
	<path class="st0" d="M10.8,17.2h4V23c0,4.1-3.4,7.5-7.5,7.5h-4v-5.8C3.3,20.6,6.6,17.2,10.8,17.2z"/>
</g>
</svg>
